subject05_noload_free_trial03_ground_reaction
version=1
nRows=27
nColumns=19
inDegrees=no
endheader
time	ground_force_r_vx	ground_force_r_vy	ground_force_r_vz	ground_force_r_px	ground_force_r_py	ground_force_r_pz	ground_torque_r_x	ground_torque_r_y	ground_torque_r_z	ground_force_l_vx	ground_force_l_vy	ground_force_l_vz	ground_force_l_px	ground_force_l_py	ground_force_l_pz	ground_torque_l_x	ground_torque_l_y	ground_torque_l_z
1.154500	10.726439	61.231444	-1.450426	0.501452	0.000000	-0.182403	0.000000	-0.528544	0.000000	-199.804434	1146.371447	34.437229	1.115281	0.000000	-0.297603	0.000000	0.980216	0.000000
1.155000	10.293823	59.916019	-1.511977	0.501776	0.000000	-0.182287	0.000000	-0.541094	0.000000	-199.647003	1146.936566	34.720242	1.115528	0.000000	-0.297638	0.000000	1.003128	0.000000
1.155500	9.871492	58.625734	-1.571387	0.502100	0.000000	-0.182169	0.000000	-0.553290	0.000000	-199.485629	1147.502719	34.994224	1.115775	0.000000	-0.297672	0.000000	1.025993	0.000000
1.156000	9.459363	57.360166	-1.628665	0.502423	0.000000	-0.182050	0.000000	-0.565138	0.000000	-199.320299	1148.070018	35.259108	1.116021	0.000000	-0.297706	0.000000	1.048805	0.000000
1.156500	9.057355	56.118890	-1.683818	0.502746	0.000000	-0.181929	0.000000	-0.576642	0.000000	-199.150994	1148.638538	35.514834	1.116266	0.000000	-0.297739	0.000000	1.071558	0.000000
1.157000	8.665398	54.901475	-1.736852	0.503068	0.000000	-0.181807	0.000000	-0.587810	0.000000	-198.977691	1149.208319	35.761350	1.116511	0.000000	-0.297771	0.000000	1.094244	0.000000
1.157500	8.283429	53.707489	-1.787773	0.503390	0.000000	-0.181683	0.000000	-0.598648	0.000000	-198.800362	1149.779365	35.998612	1.116754	0.000000	-0.297803	0.000000	1.116858	0.000000
1.158000	7.911389	52.536500	-1.836588	0.503711	0.000000	-0.181557	0.000000	-0.609162	0.000000	-198.618972	1150.351650	36.226583	1.116998	0.000000	-0.297834	0.000000	1.139393	0.000000
1.158500	7.549230	51.388075	-1.883303	0.504032	0.000000	-0.181429	0.000000	-0.619359	0.000000	-198.433486	1150.925115	36.445234	1.117240	0.000000	-0.297864	0.000000	1.161843	0.000000
1.159000	7.196906	50.261782	-1.927926	0.504352	0.000000	-0.181299	0.000000	-0.629244	0.000000	-198.243862	1151.499671	36.654545	1.117482	0.000000	-0.297894	0.000000	1.184202	0.000000
1.159500	6.854378	49.157188	-1.970463	0.504672	0.000000	-0.181168	0.000000	-0.638823	0.000000	-198.050057	1152.075202	36.854506	1.117723	0.000000	-0.297923	0.000000	1.206463	0.000000
1.160000	6.521609	48.073859	-2.010922	0.504991	0.000000	-0.181034	0.000000	-0.648103	0.000000	-197.852026	1152.651568	37.045113	1.117964	0.000000	-0.297952	0.000000	1.228619	0.000000
1.160500	6.198568	47.011365	-2.049309	0.505310	0.000000	-0.180899	0.000000	-0.657090	0.000000	-197.649723	1153.228604	37.226374	1.118203	0.000000	-0.297979	0.000000	1.250664	0.000000
1.161000	5.885223	45.969272	-2.085629	0.505628	0.000000	-0.180761	0.000000	-0.665788	0.000000	-197.443098	1153.806123	37.398304	1.118442	0.000000	-0.298007	0.000000	1.272592	0.000000
1.161500	5.581546	44.947151	-2.119888	0.505946	0.000000	-0.180622	0.000000	-0.674205	0.000000	-197.232102	1154.383919	37.560929	1.118681	0.000000	-0.298033	0.000000	1.294396	0.000000
1.162000	5.287508	43.944572	-2.152098	0.506263	0.000000	-0.180480	0.000000	-0.682346	0.000000	-197.016684	1154.961762	37.714280	1.118918	0.000000	-0.298059	0.000000	1.316071	0.000000
1.162500	5.003076	42.961109	-2.182269	0.506579	0.000000	-0.180335	0.000000	-0.690218	0.000000	-196.796792	1155.539405	37.858400	1.119155	0.000000	-0.298085	0.000000	1.337611	0.000000
1.163000	4.728213	41.996335	-2.210419	0.506894	0.000000	-0.180189	0.000000	-0.697829	0.000000	-196.572371	1156.116578	37.993340	1.119391	0.000000	-0.298109	0.000000	1.359012	0.000000
1.163500	4.462878	41.049827	-2.236566	0.507209	0.000000	-0.180039	0.000000	-0.705185	0.000000	-196.343369	1156.692994	38.119160	1.119626	0.000000	-0.298134	0.000000	1.380268	0.000000
1.164000	4.207024	40.121165	-2.260733	0.507522	0.000000	-0.179887	0.000000	-0.712293	0.000000	-196.109733	1157.268345	38.235930	1.119861	0.000000	-0.298157	0.000000	1.401375	0.000000
1.164500	3.960597	39.209935	-2.282943	0.507835	0.000000	-0.179733	0.000000	-0.719161	0.000000	-195.871412	1157.842309	38.343726	1.120095	0.000000	-0.298180	0.000000	1.422328	0.000000
1.165000	3.723538	38.315726	-2.303224	0.508147	0.000000	-0.179575	0.000000	-0.725796	0.000000	-195.628360	1158.414553	38.442634	1.120328	0.000000	-0.298203	0.000000	1.443122	0.000000
1.165500	3.495779	37.438140	-2.321605	0.508459	0.000000	-0.179414	0.000000	-0.732205	0.000000	-195.380531	1158.984731	38.532747	1.120560	0.000000	-0.298224	0.000000	1.463752	0.000000
1.166000	3.277249	36.576785	-2.338117	0.508769	0.000000	-0.179251	0.000000	-0.738396	0.000000	-195.127883	1159.552489	38.614165	1.120792	0.000000	-0.298246	0.000000	1.484215	0.000000
1.166500	3.067871	35.731283	-2.352794	0.509080	0.000000	-0.179084	0.000000	-0.744375	0.000000	-194.870377	1160.117463	38.686998	1.121022	0.000000	-0.298266	0.000000	1.504506	0.000000
1.167000	2.867562	34.901271	-2.365671	0.509389	0.000000	-0.178913	0.000000	-0.750150	0.000000	-194.607977	1160.679283	38.751364	1.121252	0.000000	-0.298287	0.000000	1.524619	0.000000
1.167500	2.676230	34.086394	-2.376787	0.509698	0.000000	-0.178740	0.000000	-0.755728	0.000000	-194.340649	1161.237576	38.807385	1.121482	0.000000	-0.298306	0.000000	1.544551	0.000000
